<?xml version="1.0" standalone="no"?>
<!DOCTYPE svg PUBLIC "-//W3C//DTD SVG 20010904//EN"
 "http://www.w3.org/TR/2001/REC-SVG-20010904/DTD/svg10.dtd">
<svg version="1.0" xmlns="http://www.w3.org/2000/svg"
 width="700.000000pt" height="700.000000pt" viewBox="0 0 700.000000 700.000000"
 preserveAspectRatio="xMidYMid meet">
<metadata>
Created by potrace 1.11, written by Peter Selinger 2001-2013
</metadata>
<g transform="translate(0.000000,700.000000) scale(0.100000,-0.100000)"
fill="#000000" stroke="none">
<path d="M3124 5875 c-17 -26 -17 -40 1 -220 2 -16 6 -84 10 -150 8 -137 28
-270 50 -322 42 -101 67 -290 45 -343 -7 -17 -16 -30 -21 -30 -20 0 -8 -38 14
-44 77 -20 127 9 148 88 12 43 13 51 23 127 16 114 20 129 38 129 17 0 58 -37
85 -75 31 -45 137 -257 138 -278 1 -9 -6 -35 -16 -56 -21 -47 -13 -66 24 -52
46 18 63 83 42 164 -6 26 -10 47 -8 47 2 0 25 -23 52 -52 50 -54 75 -58 66
-10 l-6 27 17 -29 c15 -26 22 -115 10 -134 -2 -4 0 -15 3 -26 7 -17 8 -17 24
-2 15 15 16 34 13 136 -10 246 -54 453 -117 541 -11 16 -33 30 -52 34 -71 15
-214 126 -283 219 -22 30 -29 51 -30 88 -2 76 -62 151 -151 189 -17 7 -36 24
-42 36 -15 32 -56 31 -77 -2z m136 -127 c52 -41 67 -66 75 -119 15 -103 116
-221 277 -325 61 -40 106 -77 122 -101 30 -46 48 -123 44 -189 -3 -46 -5 -49
-28 -45 -68 10 -75 8 -75 -26 0 -18 -3 -33 -6 -33 -7 0 -59 76 -59 86 0 4 -16
35 -36 68 -36 63 -87 107 -120 107 -11 0 -36 -1 -58 -2 -23 0 -42 4 -47 12 -6
11 -14 11 -38 2 -25 -9 -32 -8 -45 6 -16 17 -52 141 -60 206 -10 77 -19 333
-12 359 8 34 19 33 66 -6z m69 -753 c-1 -106 -15 -175 -38 -183 -11 -4 -12 3
-6 34 4 22 9 80 10 130 1 49 5 103 9 119 14 54 26 5 25 -100z m459 -104 c7
-20 -52 16 -86 53 -27 29 -27 29 27 -5 30 -19 57 -41 59 -48z"/>
<path d="M1330 5659 c0 -16 142 -160 1175 -1197 523 -524 950 -957 950 -962 0
-5 -394 -404 -875 -887 -933 -936 -1283 -1297 -1228 -1267 51 28 416 383 1371
1334 428 426 781 774 785 772 4 -2 394 -389 867 -860 791 -788 1147 -1136
1250 -1223 76 -64 2 19 -232 260 -72 75 -172 179 -223 231 -50 52 -437 442
-860 865 l-768 771 782 785 c936 939 1302 1316 1330 1367 31 55 -338 -301
-1267 -1228 -483 -481 -882 -875 -887 -875 -5 0 -440 430 -967 955 -1181 1178
-1203 1199 -1203 1159z"/>
<path d="M5196 3898 c-20 -28 -21 -72 -2 -87 19 -16 27 -2 31 54 4 52 -7 65
-29 33z"/>
<path d="M5432 3907 c-17 -20 -22 -68 -11 -89 17 -31 39 -4 39 48 0 46 -11 62
-28 41z"/>
<path d="M5547 3902 c-9 -10 -17 -32 -17 -49 0 -35 23 -62 36 -42 11 19 15 78
6 95 -7 13 -11 12 -25 -4z"/>
<path d="M5302 3876 c-12 -27 7 -80 25 -68 21 13 20 77 -1 85 -8 3 -18 -4 -24
-17z"/>
<path d="M1769 3803 c-24 -6 -31 -25 -115 -298 -92 -303 -93 -305 -67 -305 41
0 72 64 148 305 26 83 55 177 66 209 10 33 19 63 19 67 0 12 -33 26 -51 22z"/>
<path d="M5110 3512 l0 -269 93 1 92 1 1 90 1 90 70 1 c102 1 104 2 102 79 -1
37 3 71 8 76 5 5 37 10 71 10 88 2 96 10 99 108 l2 81 -269 0 -270 0 0 -268z
m344 173 c39 -3 71 -7 73 -9 2 -2 -16 -11 -41 -20 -47 -18 -76 -60 -76 -108 0
-31 -18 -48 -51 -48 -57 0 -126 -72 -131 -138 -3 -47 -25 -62 -35 -25 -13 45
-10 320 4 334 25 25 75 28 257 14z"/>
<path d="M1379 3642 c-57 -38 -122 -85 -144 -105 l-40 -35 37 -34 c44 -42 165
-123 222 -149 34 -15 43 -16 54 -5 23 23 -6 62 -94 123 -46 32 -83 61 -81 66
1 4 43 36 92 70 95 66 110 90 77 120 -18 17 -24 15 -123 -51z"/>
<path d="M1868 3693 c-11 -13 -13 -25 -7 -40 8 -21 76 -76 152 -122 20 -12 37
-26 37 -31 0 -4 -39 -34 -86 -66 -100 -68 -130 -100 -113 -120 6 -8 17 -14 24
-14 40 0 257 140 285 184 9 15 8 22 -12 43 -45 50 -235 183 -261 183 -2 0 -11
-8 -19 -17z"/>
<path d="M4981 3701 c-35 -22 36 -49 83 -31 23 9 26 13 16 25 -14 16 -77 20
-99 6z"/>
<path d="M4975 3580 c-12 -19 6 -30 49 -30 49 0 61 7 45 27 -13 15 -85 18 -94
3z"/>
<path d="M5568 3532 c-7 -8 -13 -43 -14 -78 -3 -84 6 -94 96 -94 58 0 71 3 80
19 16 30 13 137 -5 154 -19 20 -141 19 -157 -1z"/>
<path d="M4980 3465 c-12 -14 -11 -18 1 -26 18 -11 86 -12 93 0 17 27 -73 51
-94 26z"/>
<path d="M4980 3350 c-21 -13 0 -31 42 -35 47 -4 65 7 43 29 -18 18 -62 21
-85 6z"/>
<path d="M5360 3320 c-15 -15 -18 -31 -16 -85 1 -45 7 -69 17 -76 25 -15 136
-11 153 7 21 20 22 136 2 157 -8 8 -38 14 -75 15 -49 1 -66 -3 -81 -18z"/>
<path d="M5616 3258 c-20 -11 -23 -132 -4 -144 7 -5 41 -9 76 -10 80 -4 102
14 102 81 0 65 -22 84 -98 83 -33 -1 -67 -5 -76 -10z"/>
<path d="M3390 2461 c-78 -24 -149 -82 -184 -149 -22 -44 -57 -151 -64 -201
-4 -26 -7 -94 -7 -152 l0 -106 35 -41 c19 -22 42 -50 50 -62 8 -11 35 -28 59
-36 24 -8 55 -24 69 -34 45 -36 121 -20 148 32 21 41 25 93 29 397 1 152 6
284 10 293 12 28 37 30 89 4 28 -14 60 -26 71 -28 11 -2 26 -17 34 -33 8 -17
25 -43 38 -58 12 -16 23 -42 23 -58 0 -16 7 -40 15 -52 8 -12 17 -40 21 -61 3
-21 9 -48 14 -60 5 -14 1 -33 -11 -57 -18 -36 -18 -37 1 -54 23 -21 26 -49 8
-64 -7 -6 -27 -22 -43 -35 -17 -13 -31 -34 -32 -47 -2 -25 -19 -39 -49 -39
-11 0 -42 -14 -68 -32 -33 -21 -59 -31 -82 -30 -31 1 -33 0 -24 -18 16 -29 77
-27 120 5 19 14 41 25 49 25 28 1 57 24 107 85 l49 60 0 100 c0 153 -16 235
-69 348 -36 75 -63 107 -90 107 -13 0 -40 14 -61 30 -44 35 -76 38 -115 10
-42 -30 -50 -86 -54 -412 -6 -368 -11 -381 -116 -313 -30 19 -62 36 -72 36
-43 3 -47 6 -53 39 -5 27 -33 60 -50 60 -6 0 -18 12 -26 26 -12 24 -12 28 9
44 25 21 27 37 7 64 -22 29 -19 62 14 157 39 115 78 199 99 215 9 7 29 14 45
14 15 0 35 9 44 20 10 11 33 23 53 26 45 9 50 12 43 29 -6 16 -42 18 -83 6z"/>
<path d="M3579 2329 c-32 -34 -38 -59 -13 -59 14 0 74 57 74 71 0 4 -7 10 -16
13 -10 4 -26 -5 -45 -25z"/>
<path d="M3385 2320 c-3 -5 -4 -14 0 -19 7 -12 -33 -41 -57 -41 -29 0 -52 -66
-51 -148 1 -43 8 -48 46 -34 28 11 34 10 45 -5 13 -18 15 -76 4 -138 l-8 -40
-19 39 c-25 49 -56 62 -81 35 -17 -18 -15 -21 49 -80 37 -34 67 -70 67 -79 0
-10 6 -23 14 -29 19 -16 29 0 34 59 7 66 8 278 2 283 -3 3 -23 8 -44 11 -49 8
-66 22 -66 54 0 24 2 25 50 19 78 -9 90 12 58 96 -10 27 -31 36 -43 17z"/>
<path d="M3665 2248 c12 -42 75 -79 75 -45 0 17 -52 67 -69 67 -8 0 -10 -8 -6
-22z"/>
<path d="M3550 2153 c1 -37 62 -85 83 -64 7 7 -1 21 -25 46 -39 38 -58 44 -58
18z"/>
<path d="M3723 2118 c-30 -34 -36 -58 -15 -58 20 0 72 49 72 68 0 20 -35 13
-57 -10z"/>
<path d="M3572 1994 c-23 -16 -29 -39 -13 -48 12 -8 73 43 65 55 -8 13 -27 11
-52 -7z"/>
<path d="M3700 1968 c0 -18 50 -78 66 -78 23 0 16 34 -14 63 -29 28 -52 35
-52 15z"/>
<path d="M3612 1864 c4 -24 56 -60 67 -48 12 11 -5 36 -36 52 -29 16 -35 15
-31 -4z"/>
</g>
</svg>
